<svg xmlns="http://www.w3.org/2000/svg" width="115" height="44.5" viewBox="0 0 115 44.5"><path fill="#00EF81" d="M107.109.5l-1.534 1.534 3.664 3.664h-99.961c-.512-1.874-2.216-3.323-4.347-3.323-2.471 0-4.431 1.96-4.431 4.431s1.96 4.431 4.431 4.431c2.045 0 3.835-1.449 4.346-3.324h99.962l-3.664 3.664 1.534 1.534 6.391-6.391c0 .001-6.391-6.22-6.391-6.22z"></path><g><path d="M15.302 22h5.772v22.4h-5.169l-9.133-12.32v12.32h-5.772v-22.4h5.169l9.218 12.32v-12.32h-.085zm11.716 0v22.4h5.772v-22.4h-5.772zm85.982 22.4l-7.237-11.545 6.979-10.855h-6.634l-3.963 6.72-3.963-6.72h-6.634l6.978 10.855-7.237 11.545h6.806l4.049-6.892 4.049 6.892h6.807zm-30.757-22.4l8.098 22.4h-6.031l-1.292-3.963h-8.185l-1.378 3.963h-6.031l8.099-22.4h6.72zm-.948 13.354l-2.412-7.151-2.412 7.151h4.824zm-24.381-13.354l-5.255 14.302-5.256-14.302h-7.668v22.4h5.772v-12.665l4.653 12.665h4.911l4.652-12.665v12.665h5.858v-22.4h-7.667z"></path></g></svg>