<?xml version="1.0" encoding="utf-8"?>
<!-- Generator: Adobe Illustrator 19.0.0, SVG Export Plug-In . SVG Version: 6.00 Build 0)  -->
<svg version="1.1" id="Layer_1" xmlns="http://www.w3.org/2000/svg" xmlns:xlink="http://www.w3.org/1999/xlink" x="0px" y="0px"
	 width="150px" height="150px" viewBox="222 235 150 150" style="enable-background:new 222 235 150 150;" xml:space="preserve">
<style type="text/css">
	.st0{fill:#FF4924;}
</style>
<g>
	<path class="st0" d="M282.7,287.1h50.4c1,0,1.8-0.8,1.8-1.8c0-1-0.8-1.8-1.8-1.8h-50.4c-1,0-1.8,0.8-1.8,1.8
		C280.9,286.3,281.7,287.1,282.7,287.1z"/>
	<path class="st0" d="M333.2,308.4h-50.4c-1,0-1.8,0.8-1.8,1.8c0,1,0.8,1.8,1.8,1.8h50.4c1,0,1.8-0.8,1.8-1.8
		C335,309.2,334.2,308.4,333.2,308.4z"/>
	<path class="st0" d="M333.2,332.9h-50.4c-1,0-1.8,0.8-1.8,1.8c0,1,0.8,1.8,1.8,1.8h50.4c1,0,1.8-0.8,1.8-1.8
		C335,333.8,334.2,332.9,333.2,332.9z"/>
	<path class="st0" d="M265.3,279c-3.4,0-6.2,2.8-6.2,6.2c0,3.4,2.8,6.2,6.2,6.2s6.2-2.8,6.2-6.2C271.5,281.8,268.7,279,265.3,279z
		 M265.3,288c-1.4,0-2.6-1.2-2.6-2.6c0-1.4,1.2-2.6,2.6-2.6s2.6,1.2,2.6,2.6C267.9,286.8,266.7,288,265.3,288z"/>
	<path class="st0" d="M265.3,304c-3.4,0-6.2,2.8-6.2,6.2c0,3.4,2.8,6.2,6.2,6.2s6.2-2.8,6.2-6.2C271.6,306.8,268.7,304,265.3,304z
		 M265.3,312.9c-1.4,0-2.6-1.2-2.6-2.6s1.2-2.6,2.6-2.6s2.6,1.2,2.6,2.6C268,311.8,266.7,312.9,265.3,312.9z"/>
	<path class="st0" d="M265.3,328.5c-3.4,0-6.2,2.8-6.2,6.2c0,3.4,2.8,6.2,6.2,6.2s6.2-2.8,6.2-6.2
		C271.6,331.3,268.7,328.5,265.3,328.5z M265.3,337.5c-1.4,0-2.6-1.2-2.6-2.6s1.2-2.6,2.6-2.6s2.6,1.2,2.6,2.6
		C268,336.3,266.7,337.5,265.3,337.5z"/>
</g>
</svg>
