<?xml version="1.0" encoding="utf-8"?>
<!-- Generator: Adobe Illustrator 19.2.0, SVG Export Plug-In . SVG Version: 6.00 Build 0)  -->
<svg version="1.0" id="Layer_1" xmlns="http://www.w3.org/2000/svg" xmlns:xlink="http://www.w3.org/1999/xlink" x="0px" y="0px"
	 width="35px" height="35px" viewBox="0 0 35 35" style="enable-background:new 0 0 35 35;" xml:space="preserve">
<style type="text/css">
	.st0{fill:#4B4130;}
</style>
<path class="st0" d="M13,13.6l3.7-3.7c0,0,0.1,0,0.1-0.1c0.2-0.2,0.5-0.4,0.8-0.4s0.6,0.2,0.8,0.4c0,0,0.1,0,0.1,0.1l3.7,3.7
	c0.4,0.4,0.4,1,0,1.4c-0.4,0.4-1,0.4-1.4,0l-2.1-2.1v11.6c0,0.6-0.4,1-1,1s-1-0.4-1-1V12.9L14.4,15c-0.4,0.4-1,0.4-1.4,0
	C12.6,14.6,12.6,14,13,13.6z"/>
</svg>
