<?xml version="1.0" encoding="utf-8"?>
<!-- Generator: Adobe Illustrator 19.0.0, SVG Export Plug-In . SVG Version: 6.00 Build 0)  -->
<svg version="1.0" id="Layer_1" xmlns="http://www.w3.org/2000/svg" xmlns:xlink="http://www.w3.org/1999/xlink" x="0px" y="0px"
	 width="150px" height="150px" viewBox="222 235 150 150" style="enable-background:new 222 235 150 150;" xml:space="preserve">
<style type="text/css">
	.st0{fill:#FF4924;}
</style>
<path class="st0" d="M312.7,279.4c-0.4-0.2-0.6-0.3-0.7-0.3c-0.1,0-0.2-0.1-0.4-0.1c-4.6-1.6-9.6-2.5-14.6-2.5
	c-11.9,0-23.3,4.7-32.2,13.4c-8.5,8.3-13.3,19-13.3,29.3c0,14.6,17.9,24.1,45.5,24.1c28.1,0,45.5-9.2,45.5-24.1
	C342.5,301.7,329.7,285.7,312.7,279.4z M297,339.9c-20.9,0-42-6.4-42-20.5c0-8.9,4.2-18.4,11.2-25.8c0.6,0.3,2.2,1.6,2.9,6.7
	c0.1,0.9,0.9,1.6,1.7,1.6c0.1,0,0.1,0,0.2,0c1-0.1,1.7-1,1.5-2c-0.6-5.1-2.3-7.6-3.8-8.8c2.7-2.4,5.7-4.5,8.9-6.2
	c1.9,1.3,7.9,6.3,7.5,19.9c0,1,0.7,1.8,1.7,1.8c0,0,0,0,0.1,0c0.9,0,1.7-0.8,1.8-1.7c0.4-12.6-4.3-18.9-7.4-21.7
	c3.6-1.5,7.5-2.5,11.6-2.9c0,0,0,0,0.1,0c0.5,0,12.4,1.4,10.4,25.5c-0.1,1,0.6,1.8,1.6,1.9c0,0,0.1,0,0.1,0c0.9,0,1.7-0.7,1.8-1.6
	c0.9-11.1-0.9-19.4-5.3-24.5c-0.4-0.5-0.9-0.9-1.3-1.4c3.7,0.3,7.3,1.1,10.7,2.3c1.7,0.7,10.7,5.4,9.4,21.1c-0.1,1,0.6,1.8,1.6,1.9
	c0,0,0.1,0,0.1,0c0.9,0,1.7-0.7,1.8-1.6c0.6-7.2-0.8-12.4-2.8-16.2c10.6,7.3,17.7,18.9,17.7,31.5C339,334.5,317.3,339.9,297,339.9z"
	/>
</svg>
