<?xml version="1.0" encoding="utf-8"?>
<!-- Generator: Adobe Illustrator 19.0.0, SVG Export Plug-In . SVG Version: 6.00 Build 0)  -->
<svg version="1.0" id="Layer_1" xmlns="http://www.w3.org/2000/svg" xmlns:xlink="http://www.w3.org/1999/xlink" x="0px" y="0px"
	 width="150px" height="150px" viewBox="222 235 150 150" style="enable-background:new 222 235 150 150;" xml:space="preserve">
<style type="text/css">
	.st0{fill:#FF4924;}
</style>
<g>
	<path class="st0" d="M333.8,317c0.3-2.4,0.5-4.9,0.5-7.4s-0.2-5-0.5-7.5c0-0.1,0-0.1,0-0.2l0,0c-1.4-10.8-5.5-21.2-12-29.8
		c-2.3-5.7-13.9-8.6-24.8-8.6c-10.6,0-21.9,2.9-24.6,8.3c-6.6,8.7-10.9,19.4-12.2,30.2l0,0c0,0.1,0,0.1,0,0.2
		c-0.3,2.4-0.5,5-0.5,7.4c0,14.8,4.7,28.6,13.3,39.1c2.4,3.2,12.3,7.8,24.1,7.8c12.1,0,21.2-4.6,23.9-7.7c6.8-8.3,11.2-18.6,12.7-30
		C333.7,318.2,333.8,317.6,333.8,317z M263.6,317c-0.3-2.4-0.5-4.9-0.5-7.3c0-0.5,0-1,0-1.4c5.2,4.9,16.7,8.7,33.7,8.7
		c17,0,28.4-3.9,33.7-8.7c0,0.5,0,1,0,1.4c0,2.9-0.2,5.8-0.6,8.6c-1.9,6.8-18.3,11.5-33,11.5C281.2,329.9,263.6,324.5,263.6,317
		L263.6,317z M280.5,282.6c-2.7,5.5-4.9,12.3-6.1,19.6c-0.2,1,0.5,1.9,1.4,2.1c0.1,0,0.2,0,0.3,0c0.9,0,1.6-0.6,1.8-1.5
		c1.3-7.2,3.4-14,6.1-19.2c4,1,8.6,1.4,13,1.4c10.2,0,20.8-2.6,24.1-7.5c4.8,7.4,7.9,15.8,9,24.8c-0.5,5.3-14,11.1-33.2,11.1
		c-19.3,0-32.8-5.8-33.2-11c1.2-8.7,4.3-17.4,9.1-24.8C274.2,279.6,277,281.3,280.5,282.6z M297,267.2c13.4,0,21.6,4.1,21.6,7.2
		c0,3-8.2,7.2-21.6,7.2c-13.4,0-21.6-4.1-21.6-7.2S283.5,267.2,297,267.2z M318.1,346.5c-1.9,2.3-9.9,6.5-21.1,6.5
		c-11.4,0-19.9-4.7-21.2-6.4c0,0,0-0.1-0.1-0.1c-5-5.9-8.5-13.1-10.5-21c6.4,4.8,18.1,7.9,31.7,7.9c13.6,0,25.3-3.2,31.7-7.9
		C326.6,333.4,323,340.5,318.1,346.5z"/>
	<ellipse class="st0" cx="303.7" cy="274.3" rx="6" ry="2.6"/>
</g>
</svg>
