<?xml version="1.0" encoding="utf-8"?>
<!-- Generator: Adobe Illustrator 19.0.0, SVG Export Plug-In . SVG Version: 6.00 Build 0)  -->
<svg version="1.0" id="Layer_1" xmlns="http://www.w3.org/2000/svg" xmlns:xlink="http://www.w3.org/1999/xlink" x="0px" y="0px"
	 width="150px" height="150px" viewBox="222 235 150 150" style="enable-background:new 222 235 150 150;" xml:space="preserve">
<style type="text/css">
	.st0{fill:#FF4924;}
</style>
<g>
	<path class="st0" d="M317.6,320.5c0.6-2.8,1.2-5.3,2.1-7.3c4.1-10.9,5.2-14.2,2.2-18.4l13.3-13.3c2,0.3,4-0.4,5.4-1.8
		c2.5-2.5,2.5-6.6,0-9.1c-1-1-2.1-1.6-3.5-1.8c-0.2-1.3-0.8-2.5-1.8-3.5c-2.5-2.5-6.6-2.5-9.1,0c-1.5,1.5-2.1,3.6-1.8,5.5L311.4,284
		c-3.9-2.9-6.7-2.2-16.1,0.7c-0.9,0.3-1.9,0.6-2.9,0.9c-1.6,0.5-3.5,1-5.7,1.4c-7.3,1.7-17.2,4-25.5,10.6c-0.4,0.4-0.6,0.8-0.6,1.3
		c0,0.5,0.2,1,0.5,1.3l0.2,0.1c0.1,0.1,0.2,0.2,0.4,0.3c8,8,8,21.2,0,29.2c-2.4,2.4-5.5,4.3-8.8,5.2c-0.5,0.2-0.9,0.5-1.2,1
		c-0.2,0.4-0.2,1,0,1.5c1.6,3.5,3.8,6.6,6.5,9.3l0,0c6.2,6.2,14.5,9.6,23.3,9.6c8.8,0,17.1-3.4,23.3-9.6
		C313.4,338.6,315.8,328.6,317.6,320.5z M328.1,270.8c-0.4-1.1-0.1-2.2,0.6-2.9c1.2-1.2,2.9-1.2,4,0c0.6,0.6,0.9,1.5,0.8,2.4
		c-0.2,1.1,0.9,2.1,2.1,2.1c0.9-0.1,1.8,0.2,2.4,0.8c1.2,1.2,1.2,2.9,0,4c-0.8,0.8-1.9,1-2.9,0.7c-0.6-0.2-1.3,0-1.8,0.4l-13.7,13.7
		c-0.7-0.7-1.4-1.5-2.3-2.4l-0.1-0.1l-1.2-1.2c-0.7-0.7-1.3-1.3-1.9-1.9l13.7-13.7C328.2,272.2,328.3,271.5,328.1,270.8z
		 M281.4,353.2c-7.9,0-15.3-3-20.8-8.7l0,0c-2-2-3.6-4.1-4.9-6.5c3.1-1.2,5.9-3,8.3-5.4c9.1-9.1,9.5-23.7,1-33.3
		c7.3-5.2,16-7.2,22.5-8.7c2.3-0.5,4.3-1,6-1.5c1.1-0.4,2.1-0.6,2.9-0.9c5.5-1.8,8.6-2.8,10.5-2.4c1.7,0.3,3.1,1.7,6.5,5l1.2,1.2
		c3.7,3.7,5.2,5.3,5.4,7.2c0.3,2.3-1.1,5.9-3.7,12.6c-0.9,2.2-1.5,4.9-2.2,7.8c-1.8,7.6-4.1,17-12,24.9
		C296.7,350.2,289.3,353.2,281.4,353.2z"/>
	<path class="st0" d="M299.7,336.8c-0.7-0.7-1.8-0.7-2.5,0c-7.6,7.6-19.5,8.7-29,2.8c-0.8-0.5-2-0.3-2.5,0.5
		c-0.4,0.7-0.4,1.6,0.3,2.2c0.1,0.1,0.2,0.2,0.4,0.3c10.9,6.8,24.6,5.4,33.4-3.3C300.4,338.6,300.4,337.5,299.7,336.8z"/>
</g>
</svg>
