<svg xmlns="http://www.w3.org/2000/svg" xmlns:xlink="http://www.w3.org/1999/xlink" preserveAspectRatio="xMidYMid" width="39" height="39" viewBox="0 0 39 39">
  <defs>
    <style>
      .cls-1 {
        fill: #fc0;
        fill-rule: evenodd;
      }
    </style>
  </defs>
  <path d="M19.500,-0.000 C8.731,-0.000 -0.000,8.730 -0.000,19.500 C-0.000,30.269 8.731,39.000 19.500,39.000 C30.269,39.000 39.000,30.269 39.000,19.500 C39.000,8.730 30.269,-0.000 19.500,-0.000 ZM24.055,19.499 L21.131,19.499 L21.131,30.108 L16.747,30.108 L16.747,19.499 L14.557,19.499 L14.557,15.843 L16.747,15.843 L16.747,13.648 C16.747,10.666 17.984,8.892 21.497,8.892 L24.422,8.892 L24.422,12.548 L22.594,12.548 C21.226,12.548 21.135,13.060 21.135,14.013 L21.131,15.843 L24.443,15.843 L24.055,19.499 Z" class="cls-1"/>
</svg>
