<?xml version="1.0" encoding="utf-8"?>
<!-- Generator: Adobe Illustrator 19.0.0, SVG Export Plug-In . SVG Version: 6.00 Build 0)  -->
<svg version="1.0" id="Layer_1" xmlns="http://www.w3.org/2000/svg" xmlns:xlink="http://www.w3.org/1999/xlink" x="0px" y="0px"
	 width="150px" height="150px" viewBox="222 235 150 150" style="enable-background:new 222 235 150 150;" xml:space="preserve">
<style type="text/css">
	.st0{fill:#FF4924;}
</style>
<g>
	<path class="st0" d="M354.7,289.4c-0.4-0.8-1.5-1.2-2.4-0.7c-7.8,4.1-13.7,8-18.2,11.8c0-0.1-0.1-0.1-0.1-0.2l-0.6-0.6l0,0
		c-11.7-12.6-28-19.7-45.3-19.7c-21.9,0-41.7,11.3-53.1,30c-0.4,0.6-0.4,1.3,0,1.9c11.5,17.6,30.8,28.1,51.8,28.1
		c17.9,0,34.7-7.6,46.4-21c5.5,4.9,11.8,9,18.9,12.4c0.9,0.4,1.9,0.1,2.3-0.7c0.2-0.4,4.7-8.4,4.7-20.6
		C359.3,297.8,354.9,289.7,354.7,289.4z M287,336.5c-19.4,0-37.4-9.6-48.3-25.6c10.7-17.1,29.2-27.4,49.5-27.4
		c17,0,33.1,7.4,44.2,20.3c1.6,1.9,3.8,6.2-0.4,11.5C320.8,328.8,304.4,336.5,287,336.5z M352.3,327.4c-6.2-3.1-11.7-6.9-16.6-11.2
		c3.6-5.4,2.2-10.1,0.6-12.9c3.9-3.5,9.1-7,16-10.6c1.2,2.7,3.5,9.1,3.5,17.4C355.8,318.4,353.5,324.7,352.3,327.4z"/>
	<path class="st0" d="M259,298.5c-3.4,0-6.1,2.7-6.1,6.1c0,3.4,2.7,6.1,6.1,6.1s6.1-2.7,6.1-6.1C265.2,301.3,262.4,298.5,259,298.5z
		 M259,307.3c-1.4,0-2.6-1.2-2.6-2.6c0-1.4,1.2-2.6,2.6-2.6c1.4,0,2.6,1.2,2.6,2.6C261.6,306.1,260.4,307.3,259,307.3z"/>
	<path class="st0" d="M283.5,305c-0.8,0.5-1.1,1.6-0.5,2.5c0.4,0.5,0.9,0.8,1.5,0.8c0.4,0,0.6-0.1,1-0.3c2.4-1.5,3.8-4.2,3.8-7
		c0-2.8-1.4-5.4-3.8-7c-0.8-0.5-1.9-0.3-2.5,0.5c-0.5,0.8-0.3,1.9,0.5,2.5c1.3,0.9,2.2,2.4,2.2,4S284.9,304.1,283.5,305z"/>
	<path class="st0" d="M285.7,312.1c-0.8-0.5-1.9-0.3-2.5,0.5c-0.5,0.8-0.3,1.9,0.5,2.5c1.3,0.9,2.2,2.4,2.2,4c0,1.7-0.8,3.2-2.2,4.1
		c-0.8,0.5-1.1,1.6-0.5,2.5c0.4,0.5,0.9,0.8,1.5,0.8c0.4,0,0.6-0.1,1-0.3c2.4-1.5,3.8-4.2,3.8-7C289.4,316.2,288,313.6,285.7,312.1z
		"/>
	<path class="st0" d="M294.3,302.6c-0.8-0.5-1.9-0.3-2.5,0.5s-0.3,1.9,0.5,2.5c1.3,0.9,2.2,2.4,2.2,4c0,1.7-0.8,3.2-2.2,4.1
		c-0.8,0.5-1.1,1.6-0.5,2.5c0.4,0.5,0.9,0.8,1.5,0.8c0.4,0,0.6-0.1,1-0.3c2.4-1.5,3.8-4.2,3.8-7
		C298.2,306.8,296.7,304.1,294.3,302.6z"/>
</g>
</svg>
