<?xml version="1.0" encoding="utf-8"?>
<!-- Generator: Adobe Illustrator 19.0.0, SVG Export Plug-In . SVG Version: 6.00 Build 0)  -->
<svg version="1.0" id="Layer_1" xmlns="http://www.w3.org/2000/svg" xmlns:xlink="http://www.w3.org/1999/xlink" x="0px" y="0px"
	 width="150px" height="150px" viewBox="222 235 150 150" style="enable-background:new 222 235 150 150;" xml:space="preserve">
<style type="text/css">
	.st0{fill:#FF4924;}
</style>
<g>
	<path class="st0" d="M335.1,282.1c2.3-2.8,2.1-7-0.5-9.6c-1.4-1.4-3.2-2.1-5.1-2.1c-1.6,0-3.2,0.5-4.5,1.5
		c-14.8-8.4-36.8-3.2-52.9,13s-21.5,38-13,52.9c-2.3,2.8-2.1,7,0.5,9.6c2.6,2.6,6.8,2.8,9.6,0.5c4.7,2.7,10.1,4,15.9,4
		c12.3,0,26.1-5.9,37-16.9C338.1,318.9,343.5,297,335.1,282.1z M319.5,332.5c-15.1,15.1-36.5,20.2-49.7,11.7c-0.3-0.2-0.6-0.3-1-0.3
		c-0.5,0-1.1,0.3-1.4,0.6l-0.2,0.2c0,0.1-0.1,0.1-0.1,0.1c-1.4,1.4-3.7,1.4-5.1,0c-1.4-1.4-1.4-3.7,0-5.1c0,0,0.1-0.1,0.2-0.1
		l0.2-0.2c0.7-0.5,0.9-1.6,0.4-2.3c-8.5-13.2-3.4-34.5,11.7-49.7c15.1-15.1,36.5-20.2,49.7-11.7c0.8,0.5,1.8,0.4,2.3-0.4l0.2-0.2
		c0-0.1,0.1-0.1,0.1-0.2c0.7-0.7,1.6-1.1,2.5-1.1c1,0,1.9,0.4,2.5,1.1c1.4,1.4,1.4,3.7,0,5.1l-0.1,0.1l-0.2,0.2
		c-0.7,0.5-0.9,1.6-0.4,2.3C339.7,296,334.6,317.4,319.5,332.5z"/>
	<path class="st0" d="M271.4,308.7c-0.8-0.5-2-0.3-2.5,0.5c-0.1,0.2-2.8,4.4-2.6,11.4c0,1,0.8,1.8,1.8,1.8l0,0c1,0,1.8-0.8,1.8-1.8
		c-0.2-5.9,2.1-9.4,2.1-9.4C272.5,310.4,272.2,309.3,271.4,308.7z"/>
	<path class="st0" d="M282,305.6c-4,4.4-4.7,9.8-4.8,10c-0.1,1,0.5,1.9,1.5,2c0.1,0,0.2,0,0.3,0c0.9,0,1.6-0.6,1.8-1.5
		c0,0,0.6-4.5,3.9-8.1c0.6-0.7,0.6-1.9-0.2-2.5C283.8,304.8,282.6,304.8,282,305.6z"/>
	<path class="st0" d="M287.8,287.6c-4.7,2.3-8.8,7.1-9,7.3c-0.6,0.7-0.5,1.9,0.2,2.5c0.4,0.3,0.7,0.5,1.2,0.5c0.5,0,1-0.2,1.4-0.6
		c0,0,3.9-4.5,7.8-6.4c0.9-0.5,1.3-1.5,0.8-2.4C289.7,287.5,288.7,287.2,287.8,287.6z"/>
</g>
</svg>
