<?xml version="1.0" encoding="utf-8"?>
<!-- Generator: Adobe Illustrator 19.0.0, SVG Export Plug-In . SVG Version: 6.00 Build 0)  -->
<svg version="1.0" id="Layer_1" xmlns="http://www.w3.org/2000/svg" xmlns:xlink="http://www.w3.org/1999/xlink" x="0px" y="0px"
	 width="150px" height="150px" viewBox="222 235 150 150" style="enable-background:new 222 235 150 150;" xml:space="preserve">
<style type="text/css">
	.st0{fill:#FF4924;}
</style>
<g>
	<path class="st0" d="M316.3,294.9l-11.3-1.6l-5.1-10.2c-0.3-0.6-0.9-1-1.6-1s-1.4,0.4-1.6,1l-5.1,10.2l-11.3,1.6
		c-0.7,0.1-1.3,0.5-1.4,1.3c-0.2,0.6,0,1.4,0.5,1.9l8.1,8l-1.9,11.2c-0.1,0.7,0.2,1.4,0.7,1.8c0.5,0.4,1.3,0.5,1.9,0.2l10.1-5.3
		l10.1,5.3c0.3,0.2,0.5,0.2,0.8,0.2c0.4,0,0.7-0.1,1.1-0.4c0.5-0.4,0.8-1.1,0.7-1.8l-1.9-11.2l8.1-8c0.5-0.5,0.6-1.2,0.5-1.9
		C317.6,295.4,316.9,295,316.3,294.9z M305.9,304c-0.5,0.5-0.6,1-0.5,1.6l1.4,8.6l-7.7-4.1c-0.3-0.2-0.5-0.2-0.8-0.2
		s-0.5,0.1-0.8,0.2l-7.7,4.1l1.4-8.6c0.1-0.5-0.1-1.2-0.5-1.6l-6.2-6.1l8.6-1.3c0.6-0.1,1.1-0.5,1.4-1l3.9-7.8l3.9,7.8
		c0.3,0.5,0.8,0.9,1.4,1l8.6,1.3L305.9,304z"/>
	<path class="st0" d="M345.4,308.8c4-4,4-10.5,0-14.4c-1.9-1.9-4.5-3-7.2-3c-2.7,0-5.3,1.1-7.2,3l-1.1,1.1V294
		c0-17.4-14.1-31.5-31.5-31.5s-31.5,14.1-31.5,31.5v41.1h-0.8c-2.5,0-4.5,2-4.5,4.5V353c0,2.5,2,4.5,4.5,4.5h64.2
		c2.5,0,4.5-2,4.5-4.5v-13.4c0-2.5-2-4.5-4.5-4.5h-0.5v-10.7L345.4,308.8z M331.2,339.6V353c0,0.5-0.5,0.9-0.9,0.9h-64.2
		c-0.5,0-0.9-0.5-0.9-0.9v-13.4c0-0.5,0.5-0.9,0.9-0.9h2c0.2,0.1,0.5,0.2,0.7,0.2h59.4c0.3,0,0.5-0.1,0.7-0.2h1.5
		C330.8,338.7,331.2,339.1,331.2,339.6z M270.5,335.1V294c0-15.4,12.5-27.9,27.9-27.9s27.9,12.5,27.9,27.9v6c0,0.7,0.5,1.4,1.1,1.6
		c0.6,0.3,1.4,0.1,2-0.4l4.3-4.3c1.3-1.3,2.9-1.9,4.6-1.9c1.8,0,3.4,0.7,4.6,1.9c2.5,2.5,2.5,6.8,0,9.3l-16.1,16.1
		c-0.4,0.4-0.5,0.8-0.5,1.3v11.4L270.5,335.1L270.5,335.1z"/>
</g>
</svg>
