<?xml version="1.0" encoding="utf-8"?>
<!-- Generator: Adobe Illustrator 19.0.0, SVG Export Plug-In . SVG Version: 6.00 Build 0)  -->
<svg version="1.0" id="Layer_1" xmlns="http://www.w3.org/2000/svg" xmlns:xlink="http://www.w3.org/1999/xlink" x="0px" y="0px"
	 width="150px" height="150px" viewBox="222 235 150 150" style="enable-background:new 222 235 150 150;" xml:space="preserve">
<style type="text/css">
	.st0{fill:#FF4924;}
</style>
<g>
	<path class="st0" d="M334.3,298.1v-1.7c0-18.7-7.9-29.9-21-29.9c-7.4,0-11,3-15.8,7.2c-3.9,3.3-8.7,7.4-17.4,11.6
		c-12.3,6-20.3,18.6-20.3,32.3c0,19.8,16.1,35.9,35.9,35.9c12,0,23.1-5.9,29.7-15.8C334.3,325.7,334.3,309.8,334.3,298.1z
		 M322.5,335.7c-6.1,8.9-16,14.2-26.8,14.2c-17.8,0-32.3-14.5-32.3-32.3c0-12.3,7.2-23.7,18.2-29.1c9.1-4.4,14.1-8.7,18.2-12.1
		c4.6-3.9,7.4-6.3,13.5-6.3c11,0,17.4,9.6,17.4,26.3v1.7C330.6,309.2,330.7,324.5,322.5,335.7z"/>
	<path class="st0" d="M299.6,320.5c0-4.6-3.8-8.4-8.4-8.4c-4.6,0-8.4,3.8-8.4,8.4c0,4.6,3.8,8.4,8.4,8.4
		C295.8,328.9,299.6,325.1,299.6,320.5z M291.2,325.3c-2.6,0-4.8-2.2-4.8-4.8s2.2-4.8,4.8-4.8c2.6,0,4.8,2.2,4.8,4.8
		C296,323.1,293.8,325.3,291.2,325.3z"/>
	<path class="st0" d="M286.4,296c0.3,0,0.5-0.1,0.8-0.2c7.5-3.8,12.3-7.8,16.2-11c4.3-3.4,7.1-5.8,10.7-5.8c1,0,1.8-0.8,1.8-1.8
		s-0.8-1.8-1.8-1.8c-5,0-8.5,2.9-13,6.6c-3.7,3.1-8.4,6.9-15.6,10.5c-0.9,0.5-1.3,1.5-0.8,2.4C285,295.7,285.6,296,286.4,296z"/>
	<path class="st0" d="M319.5,328.1c-0.8-0.5-2-0.3-2.5,0.5c-4.8,7.3-12.7,11.7-21.2,11.7c-1,0-1.8,0.8-1.8,1.8c0,1,0.8,1.8,1.8,1.8
		c9.7,0,18.7-5,24.2-13.4C320.6,329.8,320.3,328.6,319.5,328.1z"/>
</g>
</svg>
