<svg xmlns="http://www.w3.org/2000/svg" xmlns:xlink="http://www.w3.org/1999/xlink" preserveAspectRatio="xMidYMid" width="39" height="39" viewBox="0 0 39 39">
  <defs>
    <style>
      .cls-1 {
        fill: #fc0;
        fill-rule: evenodd;
      }
    </style>
  </defs>
  <path d="M19.500,39.000 C8.731,39.000 -0.000,30.269 -0.000,19.500 C-0.000,8.730 8.731,-0.000 19.500,-0.000 C30.269,-0.000 39.000,8.730 39.000,19.500 C39.000,30.269 30.269,39.000 19.500,39.000 ZM19.504,8.994 C16.714,8.994 14.453,11.189 14.453,13.896 C14.453,16.604 16.714,18.800 19.504,18.800 C22.292,18.800 24.554,16.604 24.554,13.896 C24.554,11.189 22.292,8.994 19.504,8.994 ZM24.554,19.500 C23.833,19.500 22.390,20.900 19.504,20.900 C16.617,20.900 15.174,19.500 14.453,19.500 C13.656,19.500 13.010,20.127 13.010,20.900 C13.010,21.601 13.419,21.937 13.731,22.115 C14.587,22.600 17.339,23.702 17.339,23.702 L14.272,27.511 C14.272,27.511 13.731,28.167 13.731,28.606 C13.731,29.379 14.378,30.007 15.174,30.007 C15.911,30.007 16.245,29.548 16.245,29.548 C16.245,29.548 19.499,25.799 19.504,25.803 C19.509,25.799 22.762,29.547 22.762,29.547 C22.762,29.547 23.096,30.006 23.833,30.006 C24.629,30.006 25.276,29.379 25.276,28.605 C25.276,28.166 24.735,27.511 24.735,27.511 L21.668,23.702 C21.668,23.702 24.420,22.600 25.276,22.115 C25.588,21.937 25.998,21.601 25.998,20.900 C25.998,20.127 25.351,19.500 24.554,19.500 ZM19.504,16.348 C18.108,16.348 16.978,15.251 16.978,13.896 C16.978,12.543 18.108,11.445 19.504,11.445 C20.898,11.445 22.029,12.543 22.029,13.896 C22.029,15.251 20.898,16.348 19.504,16.348 Z" class="cls-1"/>
</svg>
