<?xml version="1.0" encoding="utf-8"?>
<!-- Generator: Adobe Illustrator 19.2.0, SVG Export Plug-In . SVG Version: 6.00 Build 0)  -->
<svg version="1.0" id="Layer_1" xmlns="http://www.w3.org/2000/svg" xmlns:xlink="http://www.w3.org/1999/xlink" x="0px" y="0px"
	 width="150px" height="150px" viewBox="0 0 150 150" style="enable-background:new 0 0 150 150;" xml:space="preserve">
<path d="M99.9,110.5H50.1c-3.6,0-6.9-1.5-9.2-4.4C38.1,102.8,37,98,38,93.1l4-20.7c1.3-6.7,7.2-11.8,13.8-11.8h38.4
	c6.6,0,12.5,5.1,13.8,11.8l4,20.7c1,4.9-0.1,9.7-2.9,13.1C106.8,109,103.5,110.5,99.9,110.5z M55.8,68.5c-2.7,0-5.4,2.5-6,5.4
	l-4,20.7c-0.5,2.5,0,4.9,1.2,6.5c0.8,1,1.8,1.5,3.1,1.5h49.8c1.2,0,2.3-0.5,3.1-1.5c1.2-1.5,1.7-3.9,1.2-6.5l-4-20.7
	c-0.6-2.9-3.3-5.4-6-5.4H55.8z M65.6,68.5c-0.9,0-1.6,0-2.3,0l-0.2,0c-5.7-0.2-6.5-3.7-6.6-5.2c-0.4-7.1,1.8-13.8,6.2-18.5
	c3.2-3.4,7.2-5.2,11.3-5.2c9.8,0,17.5,10.3,17.5,23.5c0,2-0.9,3.3-1.6,4c-1.7,1.6-3.8,1.5-5.1,1.5l-0.4,0c-1.9,0-4.3,0-7,0
	c-1.5,0-3.2,0-4.9,0c-1.8,0-3.3,0-4.5,0C67.1,68.5,66.3,68.5,65.6,68.5z M64.5,60.5c0.9,0,2,0,3.4,0c1.2,0,2.7,0,4.6,0
	c1.7,0,3.3,0,4.9,0c2.3,0,4.3,0,6,0c-0.8-7.3-4.7-13-9.4-13c-1.9,0-3.8,1-5.5,2.7C66.1,52.8,64.7,56.5,64.5,60.5z"/>
</svg>
