<?xml version="1.0" encoding="utf-8"?>
<!-- Generator: Adobe Illustrator 19.2.0, SVG Export Plug-In . SVG Version: 6.00 Build 0)  -->
<svg version="1.0" id="Layer_1" xmlns="http://www.w3.org/2000/svg" xmlns:xlink="http://www.w3.org/1999/xlink" x="0px" y="0px"
	 width="150px" height="150px" viewBox="0 0 150 150" style="enable-background:new 0 0 150 150;" xml:space="preserve">
<path d="M75.5,110c-0.2,0-0.3,0-0.5,0c-21.8-0.1-28.6-10.3-28.9-10.7l-0.6-0.9v-1.1C45.5,82,58.7,69.5,75,69.5s29.5,12.5,29.5,27.8
	v1.1l-0.6,0.9C103.6,99.7,96.8,110,75.5,110z M52.9,96c1.8,1.8,8,6.6,22.1,6.7c14.3,0.1,20.2-4.7,22-6.6
	C96.4,85.3,86.7,76.9,75,76.9C63.3,76.9,53.7,85.3,52.9,96z"/>
<path d="M75,76.8c-10.2,0-18.4-8.3-18.4-18.4S64.8,40,75,40s18.4,8.3,18.4,18.4S85.2,76.8,75,76.8z M75,47.4
	c-6.1,0-11.1,5-11.1,11.1s5,11.1,11.1,11.1s11.1-5,11.1-11.1S81.1,47.4,75,47.4z"/>
</svg>
