<svg xmlns="http://www.w3.org/2000/svg" xmlns:xlink="http://www.w3.org/1999/xlink" preserveAspectRatio="xMidYMid" width="39" height="39" viewBox="0 0 39 39">
  <defs>
    <style>
      .cls-1 {
        fill: #fc0;
        fill-rule: evenodd;
      }
    </style>
  </defs>
  <path d="M19.500,-0.000 C8.730,-0.000 0.000,8.730 0.000,19.500 C0.000,30.269 8.730,39.000 19.500,39.000 C30.270,39.000 39.000,30.269 39.000,19.500 C39.000,8.730 30.270,-0.000 19.500,-0.000 ZM29.620,26.796 L26.449,26.841 C26.449,26.841 25.768,26.975 24.871,26.360 C23.685,25.546 22.566,23.429 21.695,23.705 C20.811,23.986 20.839,25.890 20.839,25.890 C20.839,25.890 20.845,26.297 20.644,26.514 C20.425,26.749 19.996,26.796 19.996,26.796 L18.577,26.796 C18.577,26.796 15.446,26.985 12.687,24.113 C9.680,20.982 7.024,14.767 7.024,14.767 C7.024,14.767 6.870,14.360 7.037,14.163 C7.224,13.941 7.733,13.927 7.733,13.927 L11.126,13.905 C11.126,13.905 11.446,13.958 11.674,14.126 C11.863,14.265 11.969,14.524 11.969,14.524 C11.969,14.524 12.517,15.911 13.243,17.166 C14.661,19.615 15.321,20.150 15.802,19.888 C16.503,19.505 16.293,16.426 16.293,16.426 C16.293,16.426 16.306,15.308 15.940,14.810 C15.657,14.425 15.122,14.312 14.886,14.281 C14.695,14.255 15.009,13.813 15.415,13.613 C16.025,13.314 17.104,13.297 18.377,13.310 C19.370,13.320 19.656,13.382 20.044,13.476 C21.214,13.758 20.817,14.849 20.817,17.465 C20.817,18.303 20.666,19.481 21.270,19.872 C21.530,20.040 22.166,19.897 23.755,17.198 C24.509,15.918 25.074,14.414 25.074,14.414 C25.074,14.414 25.198,14.146 25.389,14.031 C25.586,13.913 25.850,13.950 25.850,13.950 L29.421,13.927 C29.421,13.927 30.493,13.799 30.667,14.284 C30.850,14.792 30.266,15.979 28.808,17.923 C26.412,21.115 26.146,20.816 28.135,22.662 C30.034,24.425 30.428,25.283 30.492,25.390 C31.279,26.694 29.620,26.796 29.620,26.796 Z" class="cls-1"/>
</svg>
