<?xml version="1.0" encoding="utf-8"?>
<!-- Generator: Adobe Illustrator 19.0.0, SVG Export Plug-In . SVG Version: 6.00 Build 0)  -->
<svg version="1.0" id="Layer_1" xmlns="http://www.w3.org/2000/svg" xmlns:xlink="http://www.w3.org/1999/xlink" x="0px" y="0px"
	 width="150px" height="150px" viewBox="534.3 -59.8 150 150" style="enable-background:new 534.3 -59.8 150 150;"
	 xml:space="preserve">
<style type="text/css">
	.st0{fill:#FF4924;}
</style>
<g>
	<path class="st0" d="M609.3-30.3c-23.6,0-42.1,15.6-42.1,35.5c0,6.4,3.3,18.4,15.8,18.4c5.9,0,10.1-2.1,11.2-5.7
		c0.8-2.4-0.1-5-2.1-6.5c-2-1.3-3.9-1.2-5.6-0.9c-1.8,0.2-2.4,0.3-3.1-0.6c-0.3-0.4-1.2-2,0.4-3.4c1-0.7,4.9-3,16.8-3.1
		c0,3.6-0.1,12.2-1.8,21.2c-0.5,2.9-1.6,6-2.7,9.3c-2.6,8-5.3,16.2-1.4,21.7c2.5,3.5,7.2,5.2,14.5,5.2s12-1.7,14.5-5.2
		c3.9-5.4,1.2-13.7-1.4-21.7c-1.1-3.3-2.1-6.5-2.7-9.3C618,15.6,618,7,618,3.4c11.9,0,15.9,2.3,16.8,3.1c1.8,1.3,0.7,3,0.5,3.4
		c-0.6,0.9-1.3,0.9-3.1,0.6c-1.6-0.2-3.7-0.4-5.6,0.9c-2,1.4-2.9,4.1-2.1,6.5c1.2,3.6,5.3,5.7,11.2,5.7c12.5,0,15.8-12.1,15.8-18.4
		C651.5-14.7,632.9-30.3,609.3-30.3z M635.7,20.1c-5,0-7.3-1.7-7.8-3.3c-0.3-1,0-1.9,0.8-2.5c0.8-0.5,1.7-0.4,3-0.3
		c1.9,0.3,4.5,0.5,6.3-2c1.3-1.8,2.3-5.7-1.2-8.3c-3.4-2.6-10.8-4-20.8-3.8c-1,0-1.7,0.8-1.8,1.7c0,0.4-0.4,11.6,1.8,23.7
		c0.5,3,1.7,6.4,2.8,9.7c2.3,7.1,4.8,14.5,1.9,18.4c-1.8,2.4-5.7,3.7-11.6,3.7c-5.9,0-9.8-1.2-11.6-3.7c-2.9-4-0.4-11.3,1.9-18.4
		c1.1-3.3,2.2-6.7,2.8-9.7C604.4,13.1,604,2,604,1.5c0-1-0.8-1.7-1.8-1.7c-10.1-0.2-17.4,1.2-20.8,3.8c-3.5,2.7-2.5,6.5-1.2,8.3
		c2,2.6,4.5,2.2,6.3,2c1.4-0.2,2.3-0.3,3,0.3c0.8,0.5,1.2,1.5,0.8,2.5c-0.5,1.6-2.9,3.3-7.8,3.3c-12,0-12.2-14.3-12.2-14.9
		c0-17.8,16.9-31.9,38.5-31.9c21.6,0,38.5,14,38.5,31.9c0,0,0,3.8-1.6,7.7C644.2,17.7,640.7,20.1,635.7,20.1z"/>
	<path class="st0" d="M625.8-17.6c-5.2-2.5-12.3-3.4-16.8-3.4c-5.8,0-11.2,1.2-16.2,3.4c-0.9,0.4-1.3,1.4-0.9,2.3
		c0.3,0.6,1,1.1,1.6,1.1c0.3,0,0.4-0.1,0.7-0.2c4.5-2,9.5-3,14.8-3c4.5,0,11,0.9,15.2,3c0.3,0.1,0.5,0.2,0.8,0.2
		c0.6,0,1.3-0.4,1.6-1C627-16.1,626.7-17.2,625.8-17.6z"/>
</g>
</svg>
