<svg xmlns="http://www.w3.org/2000/svg" xmlns:xlink="http://www.w3.org/1999/xlink" preserveAspectRatio="xMidYMid" width="20" height="20" viewBox="0 0 20 20">
  <defs>
    <style>
      .cls-1 {
        fill: #fff;
        fill-rule: evenodd;
      }
    </style>
  </defs>
  <path d="M19.000,11.000 L17.000,11.000 L11.000,11.000 L11.000,17.000 L11.000,19.000 C11.000,19.552 10.552,20.000 10.000,20.000 C9.448,20.000 9.000,19.552 9.000,19.000 L9.000,17.000 L9.000,11.000 L3.000,11.000 L1.000,11.000 C0.448,11.000 0.000,10.552 0.000,10.000 C0.000,9.448 0.448,9.000 1.000,9.000 L3.000,9.000 L9.000,9.000 L9.000,3.000 L9.000,1.000 C9.000,0.448 9.448,0.000 10.000,0.000 C10.552,0.000 11.000,0.448 11.000,1.000 L11.000,3.000 L11.000,9.000 L17.000,9.000 L19.000,9.000 C19.552,9.000 20.000,9.448 20.000,10.000 C20.000,10.552 19.552,11.000 19.000,11.000 Z" class="cls-1"/>
</svg>
