<svg xmlns="http://www.w3.org/2000/svg" xmlns:xlink="http://www.w3.org/1999/xlink" preserveAspectRatio="xMidYMid" width="21" height="15.188" viewBox="0 0 21 15.188">
  <defs>
    <style>
      .cls-1 {
        fill: #ff4924;
        fill-rule: evenodd;
      }
    </style>
  </defs>
  <path d="M19.897,1.705 L7.137,14.466 C7.091,14.623 7.021,14.773 6.897,14.897 C6.677,15.117 6.381,15.200 6.094,15.171 C5.807,15.200 5.511,15.117 5.291,14.897 C5.167,14.773 5.097,14.623 5.051,14.466 L0.291,9.705 C-0.100,9.314 -0.100,8.681 0.291,8.291 C0.681,7.900 1.314,7.900 1.705,8.291 L6.094,12.680 L18.483,0.291 C18.874,-0.100 19.507,-0.100 19.897,0.291 C20.288,0.681 20.288,1.314 19.897,1.705 Z" transform="translate(0.41)" class="cls-1"/>
</svg>
