<?xml version="1.0" encoding="utf-8"?>
<!-- Generator: Adobe Illustrator 19.2.0, SVG Export Plug-In . SVG Version: 6.00 Build 0)  -->
<svg version="1.0" id="Layer_1" xmlns="http://www.w3.org/2000/svg" xmlns:xlink="http://www.w3.org/1999/xlink" x="0px" y="0px"
	 width="24px" height="24px" viewBox="0 0 24 24" style="enable-background:new 0 0 24 24;" xml:space="preserve">
<style type="text/css">
	.st0{fill-rule:evenodd;clip-rule:evenodd;fill:#F04D2E;}
	.st1{fill-rule:evenodd;clip-rule:evenodd;fill:none;stroke:#F04D2E;stroke-width:3;stroke-miterlimit:10;}
</style>
<path class="st0" d="M3.9,18.3c1,0,1.9,0.7,1.9,1.5c0,0.8-0.8,1.5-1.9,1.5c-1,0-1.9-0.7-1.9-1.5C2,19,2.8,18.3,3.9,18.3z"/>
<path class="st1" d="M18.5,2.5l3,3c0.7,0.7,0.7,1.9,0,2.7l-12,12C8,21.7,2.1,22,2.1,22c-0.7-0.7,0.4-6,1.8-7.5l12-12
	C16.6,1.8,17.8,1.8,18.5,2.5z"/>
</svg>
