<?xml version="1.0" encoding="utf-8"?>
<!-- Generator: Adobe Illustrator 19.0.0, SVG Export Plug-In . SVG Version: 6.00 Build 0)  -->
<svg version="1.0" id="Слой_1" xmlns="http://www.w3.org/2000/svg" xmlns:xlink="http://www.w3.org/1999/xlink" x="0px" y="0px"
	 width="28px" height="21px" viewBox="0 0 28 21" style="enable-background:new 0 0 28 21;" xml:space="preserve">
<style type="text/css">
	.st0{fill-rule:evenodd;clip-rule:evenodd;fill:none;stroke:#FFCD05;stroke-width:2;stroke-miterlimit:10;}
</style>
<path class="st0" d="M14.4,18.6c0,0-3.7-2.3-6.7-5.3c-3-3-5.3-6.7-5.3-6.7c-0.8-0.8-0.8-2,0-2.8l2.1-2.1c0.8-0.8,2.1-0.8,2.8,0
	c0,0,0.6,0.6,1.4,1.4c1.5,1.5,0,2.8,0,2.8l0,0c0,0,0.8,2.2,2.3,3.7c1.7,1.7,4.1,2.7,4.1,2.7s1.4-1.4,2.8,0c0.8,0.8,1.4,1.4,1.4,1.4
	c0.8,0.8,0.8,2.1,0,2.8l-2.1,2.1C16.4,19.4,15.2,19.4,14.4,18.6z"/>
<path class="st0" d="M24.9,6.6l-1.8,1.8"/>
<path class="st0" d="M17.5,4v2"/>
<path class="st0" d="M27.5,14h-2"/>
</svg>
