<svg xmlns="http://www.w3.org/2000/svg" xmlns:xlink="http://www.w3.org/1999/xlink" preserveAspectRatio="xMidYMid" width="21" height="14" viewBox="0 0 21 14">
  <defs>
    <style>
      .cls-1 {
        fill: #fff;
        fill-rule: evenodd;
      }
    </style>
  </defs>
  <path d="M20.000,8.000 L7.000,8.000 C6.448,8.000 6.000,7.552 6.000,7.000 C6.000,6.448 6.448,6.000 7.000,6.000 L20.000,6.000 C20.552,6.000 21.000,6.448 21.000,7.000 C21.000,7.552 20.552,8.000 20.000,8.000 ZM20.000,2.000 L7.000,2.000 C6.448,2.000 6.000,1.552 6.000,1.000 C6.000,0.448 6.448,0.000 7.000,0.000 L20.000,0.000 C20.552,0.000 21.000,0.448 21.000,1.000 C21.000,1.552 20.552,2.000 20.000,2.000 ZM2.000,14.000 L1.000,14.000 C0.448,14.000 -0.000,13.552 -0.000,13.000 C-0.000,12.448 0.448,12.000 1.000,12.000 L2.000,12.000 C2.552,12.000 3.000,12.448 3.000,13.000 C3.000,13.552 2.552,14.000 2.000,14.000 ZM2.000,8.000 L1.000,8.000 C0.448,8.000 -0.000,7.552 -0.000,7.000 C-0.000,6.448 0.448,6.000 1.000,6.000 L2.000,6.000 C2.552,6.000 3.000,6.448 3.000,7.000 C3.000,7.552 2.552,8.000 2.000,8.000 ZM2.000,2.000 L1.000,2.000 C0.448,2.000 -0.000,1.552 -0.000,1.000 C-0.000,0.448 0.448,0.000 1.000,0.000 L2.000,0.000 C2.552,0.000 3.000,0.448 3.000,1.000 C3.000,1.552 2.552,2.000 2.000,2.000 ZM7.000,12.000 L20.000,12.000 C20.552,12.000 21.000,12.448 21.000,13.000 C21.000,13.552 20.552,14.000 20.000,14.000 L7.000,14.000 C6.448,14.000 6.000,13.552 6.000,13.000 C6.000,12.448 6.448,12.000 7.000,12.000 Z" class="cls-1"/>
</svg>
