<?xml version="1.0" encoding="utf-8"?>
<!-- Generator: Adobe Illustrator 19.0.0, SVG Export Plug-In . SVG Version: 6.00 Build 0)  -->
<svg version="1.0" id="Layer_1" xmlns="http://www.w3.org/2000/svg" xmlns:xlink="http://www.w3.org/1999/xlink" x="0px" y="0px"
	 width="24px" height="24px" viewBox="285 298 24 24" style="enable-background:new 285 298 24 24;" xml:space="preserve">
<style type="text/css">
	.st0{fill:#FF4924;}
</style>
<g>
	<path class="st0" d="M297,299.9c-5.6,0-10.1,4.5-10.1,10.1s4.5,10.1,10.1,10.1s10.1-4.5,10.1-10.1S302.6,299.9,297,299.9z
		 M297,318.1c-4.5,0-8.1-3.6-8.1-8.1s3.6-8.1,8.1-8.1s8.1,3.6,8.1,8.1S301.5,318.1,297,318.1z"/>
	<path class="st0" d="M299.5,310.7c-0.6,0.7-1.5,1.1-2.4,1.1s-1.8-0.4-2.4-1.1L294,310l-1.5,1.4l0.7,0.7c1,1.1,2.4,1.7,3.9,1.7
		s2.9-0.6,3.9-1.7l0.7-0.7l-1.5-1.4L299.5,310.7z"/>
	<circle class="st0" cx="293.3" cy="307.2" r="1.2"/>
	<circle class="st0" cx="300.8" cy="307.2" r="1.2"/>
</g>
</svg>
