<svg xmlns="http://www.w3.org/2000/svg" xmlns:xlink="http://www.w3.org/1999/xlink" preserveAspectRatio="xMidYMid" width="40" height="53" viewBox="0 0 40 53">
  <defs>
    <style>
      .cls-1 {
        fill: #ff4924;
        fill-rule: evenodd;
      }
    </style>
  </defs>
  <path d="M32.000,37.000 L21.000,53.000 L20.000,53.000 L8.000,37.000 C8.000,37.000 0.000,25.603 0.000,20.000 C0.000,8.954 8.954,-0.000 20.000,-0.000 C31.046,-0.000 40.000,8.954 40.000,20.000 C40.000,26.025 32.000,37.000 32.000,37.000 ZM20.000,13.000 C16.686,13.000 14.000,15.686 14.000,19.000 C14.000,22.314 16.686,25.000 20.000,25.000 C23.314,25.000 26.000,22.314 26.000,19.000 C26.000,15.686 23.314,13.000 20.000,13.000 Z" class="cls-1"/>
</svg>
