<?xml version="1.0" encoding="utf-8"?>
<!-- Generator: Adobe Illustrator 19.0.0, SVG Export Plug-In . SVG Version: 6.00 Build 0)  -->
<svg version="1.0" id="Слой_1" xmlns="http://www.w3.org/2000/svg" xmlns:xlink="http://www.w3.org/1999/xlink" x="0px" y="0px"
	 width="80px" height="30px" viewBox="0 0 80 30" style="enable-background:new 0 0 80 30;" xml:space="preserve">
<style type="text/css">
	.st0{fill:#66BF74;}
	.st1{fill:#FFFFFF;}
</style>
<path id="XMLID_42_" class="st0" d="M75.5,0.5l-1.1,1.1L77,4.2H6.2C5.9,2.9,4.6,1.9,3.2,1.9C1.4,1.9,0,3.3,0,5
	c0,1.7,1.4,3.2,3.2,3.2c1.5,0,2.7-1,3.1-2.4H77l-2.6,2.6l1.1,1.1L80,5L75.5,0.5z"/>
<path id="XMLID_15_" class="st1" d="M11.2,13.7h4.1v15.8h-3.6l-6.5-8.7v8.7H1.1V13.7h3.6l6.5,8.7V13.7z M19.5,13.7L19.5,13.7
	L19.5,13.7v15.8h4.1l0,0h0l0-15.8H19.5z M80,29.5l-5.1-8.1l0,0l4.9-7.7h-4.7l0,0h0l-2.8,4.7l0,0l-2.8-4.7h-4.7l4.9,7.7l-5.1,8.1h4.8
	l2.8-4.9l2.8,4.9h0l0,0H80z M58.4,13.7l5.7,15.8h-4.3l0,0h0l-0.9-2.8h-5.8l-0.9,2.8h0l0,0h-4.3l5.7-15.8h0l0,0h4.5l0,0H58.4z
	 M57.7,23.1l-1.7-5v0l-1.7,5H57.7z M40.5,13.7l-3.7,10.1l-3.7-10.1h-5.4v15.8h4.1v-8.9l3.3,8.9h3.5l3.3-8.9v8.9h4.1V13.7H40.5z"/>
</svg>
