<svg xmlns="http://www.w3.org/2000/svg" xmlns:xlink="http://www.w3.org/1999/xlink" preserveAspectRatio="xMidYMid" width="9.062" height="9.06" viewBox="0 0 9.062 9.06">
  <defs>
    <style>
      .cls-1 {
        fill: #f2eede;
        fill-rule: evenodd;
      }
    </style>
  </defs>
  <path d="M5.945,4.530 L8.774,7.359 C9.164,7.749 9.164,8.382 8.774,8.773 C8.383,9.163 7.750,9.163 7.359,8.773 L4.531,5.944 L1.703,8.773 C1.312,9.163 0.679,9.163 0.288,8.773 C-0.102,8.382 -0.102,7.749 0.288,7.359 L3.117,4.530 L0.288,1.702 C-0.102,1.311 -0.102,0.678 0.288,0.287 C0.679,-0.103 1.312,-0.103 1.703,0.287 L4.531,3.116 L7.359,0.287 C7.750,-0.103 8.383,-0.103 8.774,0.287 C9.164,0.678 9.164,1.311 8.774,1.702 L5.945,4.530 Z" class="cls-1"/>
</svg>
