<svg xmlns="http://www.w3.org/2000/svg" xmlns:xlink="http://www.w3.org/1999/xlink" preserveAspectRatio="xMidYMid" width="27.968" height="42.72" viewBox="0 0 27.968 42.72">
  <defs>
    <style>
      .cls-1 {
        fill: #fc0;
        fill-rule: evenodd;
      }
    </style>
  </defs>
  <path d="M27.899,42.712 L27.959,40.972 L2.808,40.972 L16.794,27.350 C20.216,24.050 22.677,21.289 24.117,19.009 C25.558,16.729 26.278,14.208 26.278,11.388 C26.278,7.968 25.078,5.267 22.737,3.167 C20.396,1.067 17.274,-0.014 13.493,-0.014 C8.451,-0.014 4.249,1.787 0.827,5.327 L0.827,7.788 C4.369,4.007 8.030,1.727 13.373,1.727 C16.674,1.727 19.315,2.627 21.296,4.487 C23.337,6.287 24.357,8.628 24.357,11.508 C24.357,14.088 23.637,16.429 22.256,18.529 C20.876,20.629 18.595,23.210 15.294,26.390 L0.047,41.212 L-0.013,42.712 L27.899,42.712 Z" class="cls-1"/>
</svg>
