<svg xmlns="http://www.w3.org/2000/svg" xmlns:xlink="http://www.w3.org/1999/xlink" preserveAspectRatio="xMidYMid" width="16" height="9.65" viewBox="0 0 16 9.65">
  <defs>
    <style>
      .cls-1 {
        fill: #4b4130;
        fill-rule: evenodd;
      }
    </style>
  </defs>
  <path d="M14.985,5.824 L3.399,5.824 L5.520,7.946 C5.910,8.336 5.910,8.969 5.520,9.360 C5.130,9.750 4.497,9.750 4.106,9.360 L0.449,5.703 C0.422,5.676 0.418,5.640 0.396,5.611 C0.152,5.429 -0.015,5.152 -0.015,4.825 C-0.015,4.497 0.152,4.220 0.396,4.038 C0.418,4.009 0.422,3.972 0.449,3.946 L4.106,0.289 C4.497,-0.102 5.130,-0.102 5.520,0.289 C5.910,0.680 5.910,1.312 5.520,1.703 L3.399,3.824 L14.985,3.824 C15.537,3.824 15.985,4.272 15.985,4.825 C15.985,5.377 15.537,5.824 14.985,5.824 Z" class="cls-1"/>
</svg>
