<?xml version="1.0" encoding="utf-8"?>
<!-- Generator: Adobe Illustrator 19.0.0, SVG Export Plug-In . SVG Version: 6.00 Build 0)  -->
<svg version="1.0" id="Слой_1" xmlns="http://www.w3.org/2000/svg" xmlns:xlink="http://www.w3.org/1999/xlink" x="0px" y="0px"
	 width="30px" height="30px" viewBox="0 0 30 30" style="enable-background:new 0 0 30 30;" xml:space="preserve">
<style type="text/css">
	.st0{fill-rule:evenodd;clip-rule:evenodd;fill:#FFFFFF;stroke:#FFFFFF;stroke-width:2;stroke-miterlimit:10;}
	.st1{fill-rule:evenodd;clip-rule:evenodd;fill:none;stroke:#FFFFFF;stroke-width:2;stroke-miterlimit:10;}
</style>
<path id="XMLID_1_" class="st0" d="M24.8,4.1c0.4,0.4,0.4,1,0,1.4L6.6,25.9c-0.4,0.4-1,0.4-1.4,0c-0.4-0.4-0.4-1,0-1.4L23.4,4.1
	C23.8,3.7,24.4,3.7,24.8,4.1z"/>
<path class="st1" d="M23,17c2.8,0,5,2.2,5,5s-2.2,5-5,5s-5-2.2-5-5S20.2,17,23,17z"/>
<path class="st1" d="M7,4c2.8,0,5,2.2,5,5s-2.2,5-5,5c-2.8,0-5-2.2-5-5S4.2,4,7,4z"/>
</svg>
