<?xml version="1.0" encoding="utf-8"?>
<!-- Generator: Adobe Illustrator 19.0.0, SVG Export Plug-In . SVG Version: 6.00 Build 0)  -->
<svg version="1.0" id="Слой_1" xmlns="http://www.w3.org/2000/svg" xmlns:xlink="http://www.w3.org/1999/xlink" x="0px" y="0px"
	 width="116px" height="30px" viewBox="0 0 116 30" style="enable-background:new 0 0 116 30;" xml:space="preserve">
<style type="text/css">
	.st0{fill:#F2C318;}
</style>
<g id="XMLID_17_">
	<path id="XMLID_33_" class="st0" d="M0.5,28.1l4.3-5.8c-1.7-0.7-2.7-2.1-2.7-4c0-1.3,0.5-2.3,1.4-3.1C4.4,14.4,5.6,14,7.2,14h6.6
		v14.1h-3.6v-5.4H8.7l-4,5.4H0.5z M10.1,19.8v-2.7H7.4c-1,0-1.6,0.5-1.6,1.4c0,0.8,0.6,1.3,1.6,1.3H10.1z"/>
	<path id="XMLID_30_" class="st0" d="M17.8,28.1V14h6.3c1.6,0,2.8,0.4,3.7,1.2c0.9,0.8,1.4,1.9,1.4,3.2c0,1.3-0.5,2.4-1.4,3.2
		c-0.9,0.8-2.2,1.2-3.7,1.2h-2.7v5.2H17.8z M21.4,19.9h2.4c1,0,1.7-0.5,1.7-1.4s-0.7-1.4-1.7-1.4h-2.4V19.9z"/>
	<path id="XMLID_28_" class="st0" d="M32.1,28.1V14h3.6l3.6,5.4l3.6-5.4h3.6v14.1h-3.6v-8.6l-2.5,3.8h-2l-2.6-3.8v8.6H32.1z"/>
	<path id="XMLID_25_" class="st0" d="M57.2,28.4c-2.1,0-3.9-0.7-5.3-2.1c-1.4-1.4-2.1-3.2-2.1-5.2s0.7-3.8,2.1-5.2
		c1.4-1.4,3.2-2.1,5.3-2.1s3.9,0.7,5.3,2.1c1.4,1.4,2.1,3.2,2.1,5.2s-0.7,3.8-2.1,5.2C61.1,27.7,59.3,28.4,57.2,28.4z M57.2,25
		c1.1,0,1.9-0.4,2.6-1.1c0.7-0.7,1.1-1.7,1.1-2.9c0-1.1-0.4-2.1-1.1-2.9c-0.7-0.7-1.6-1.1-2.6-1.1c-1.1,0-1.9,0.4-2.7,1.1
		c-0.7,0.7-1,1.7-1,2.9c0,1.1,0.3,2.1,1,2.9C55.2,24.7,56.1,25,57.2,25z"/>
	<path id="XMLID_23_" class="st0" d="M67.9,28.1V14h3.6v5h5.3v-5h3.6v14.1h-3.6v-5.8h-5.3v5.8H67.9z"/>
	<path id="XMLID_21_" class="st0" d="M84.5,28.1V14h3.6v5.4l4.6-5.4H97l-5.4,6.5l6.5,7.6h-4.4l-5.5-6.2v6.2H84.5z"/>
	<path id="XMLID_18_" class="st0" d="M100.2,28.1l5.9-14.1h3.5l5.9,14.1h-3.9l-1.2-3h-5.2l-1.2,3H100.2z M106.4,22.2h2.9l-1.5-3.8
		L106.4,22.2z"/>
</g>
<g id="XMLID_14_">
	<path id="XMLID_15_" class="st0" d="M9.5,10.2L7.4,9.1l0.5-0.9c0.6-1.1,0.9-2.3,1-3.4V1.6h3.4l0,2.8c0,1-0.3,2.1-0.8,3.1
		C11,8.6,10.3,9.5,9.5,10.2z"/>
</g>
</svg>
