<?xml version="1.0" encoding="utf-8"?>
<!-- Generator: Adobe Illustrator 19.2.0, SVG Export Plug-In . SVG Version: 6.00 Build 0)  -->
<svg version="1.0" id="Layer_1" xmlns="http://www.w3.org/2000/svg" xmlns:xlink="http://www.w3.org/1999/xlink" x="0px" y="0px"
	 width="24px" height="24px" viewBox="0 0 24 24" style="enable-background:new 0 0 24 24;" xml:space="preserve">
<style type="text/css">
	.st0{fill-rule:evenodd;clip-rule:evenodd;fill:none;stroke:#F04D2E;stroke-width:2;stroke-miterlimit:10;}
	.st1{fill-rule:evenodd;clip-rule:evenodd;fill:#F04D2E;}
</style>
<path class="st0" d="M12,10c2.5,0,4.5,2,4.5,4.5c0,2.5-2,4.5-4.5,4.5s-4.5-2-4.5-4.5C7.5,12,9.5,10,12,10z"/>
<path class="st1" d="M10,3.5h4c0.6,0,1,0.4,1,1v1c0,0.6-0.4,1-1,1h-4c-0.6,0-1-0.4-1-1v-1C9,3.9,9.4,3.5,10,3.5z"/>
<path class="st0" d="M3.1,6.5h17.8C21.5,6.5,22,7,22,7.6v13.7c0,0.6-0.5,1.1-1.1,1.1H3.1C2.5,22.5,2,22,2,21.4V7.6
	C2,7,2.5,6.5,3.1,6.5z"/>
</svg>
