<?xml version="1.0" encoding="utf-8"?>
<!-- Generator: Adobe Illustrator 19.0.0, SVG Export Plug-In . SVG Version: 6.00 Build 0)  -->
<svg version="1.0" id="Слой_1" xmlns="http://www.w3.org/2000/svg" xmlns:xlink="http://www.w3.org/1999/xlink" x="0px" y="0px"
	 width="160px" height="130px" viewBox="-30 5 160 130" style="enable-background:new -30 5 160 130;" xml:space="preserve">
<style type="text/css">
	.st0{fill:#FE4823;}
</style>
<g>
	<path class="st0" d="M-23.4,61.1c0.3,0.8,1.1,1.2,1.9,1.2c0.3,0,0.5,0,0.8-0.1c1-0.4,1.5-1.6,1.1-2.6l-4.2-10.4
		c-0.2-0.6,0-1.2,0.2-1.3c0.1-0.2,0.5-0.6,1.2-0.6h72h0.9h72c0.7,0,1.1,0.4,1.2,0.6c0.1,0.2,0.4,0.7,0.2,1.3l-4.2,10.5
		c-0.4,1,0.1,2.2,1.1,2.6c0.2,0.1,0.5,0.1,0.7,0.1c0.8,0,1.5-0.5,1.9-1.3l4.2-10.5c0.6-1.7,0.4-3.6-0.6-5c-1-1.5-2.7-2.3-4.5-2.3
		H84.8C84.5,24.3,69,8.9,49.9,8.9S15.3,24.3,15,43.3h-37.5c-1.8,0-3.5,0.9-4.5,2.3c-1,1.5-1.3,3.3-0.6,5.1L-23.4,61.1z M49.8,13
		c16.9,0,30.6,13.6,30.9,30.4H50.3h-0.9H18.9C19.2,26.5,33,13,49.8,13z"/>
	<path class="st0" d="M107.3,106.8c-1-0.4-2.2,0.1-2.6,1.1l-4.9,12.3c0,0.1-2.5,7-7.9,7l0,0c-2.8,0-23.9,0-41.3,0c-0.5,0-1,0-1.5,0
		c-17.4,0-38.5,0-41.3,0l0,0c-5.5,0-7.9-6.9-7.9-7v-0.1L-5,107.9c-0.4-1-1.6-1.5-2.6-1.1s-1.5,1.6-1.1,2.6l4.9,12.1
		c0.3,0.9,3.6,9.6,11.7,9.6l0,0c2.7,0,22.5,0,39.6,0c1.7,0,3.3,0,4.9,0c17,0,36.9,0,39.6,0l0,0c8.1,0,11.4-8.8,11.7-9.6l4.8-12.2
		C108.9,108.2,108.4,107.1,107.3,106.8z"/>
</g>
</svg>
