<svg xmlns="http://www.w3.org/2000/svg" xmlns:xlink="http://www.w3.org/1999/xlink" preserveAspectRatio="xMidYMid" width="27.31" height="42.72" viewBox="0 0 27.31 42.72">
  <defs>
    <style>
      .cls-1 {
        fill: #fc0;
        fill-rule: evenodd;
      }
    </style>
  </defs>
  <path d="M11.940,42.712 C16.322,42.712 19.924,41.452 22.865,38.932 C25.806,36.351 27.307,33.111 27.307,29.150 C27.307,25.010 25.866,21.829 22.985,19.609 C20.104,17.389 16.562,16.249 12.360,16.249 C11.880,16.249 11.520,16.249 11.340,16.309 L25.986,1.367 L25.986,-0.013 L2.036,-0.013 L2.036,1.727 L23.345,1.727 L8.279,16.909 L8.279,18.349 C9.659,18.049 10.980,17.929 12.180,17.929 C16.202,17.929 19.443,18.949 21.844,21.049 C24.245,23.090 25.446,25.790 25.446,29.150 C25.446,32.691 24.065,35.572 21.364,37.732 C18.663,39.892 15.482,40.972 11.820,40.972 C7.078,40.972 3.116,39.892 -0.005,37.732 L-0.005,39.772 C3.176,41.752 7.198,42.712 11.940,42.712 Z" class="cls-1"/>
</svg>
