<?xml version="1.0" encoding="utf-8"?>
<!-- Generator: Adobe Illustrator 19.2.0, SVG Export Plug-In . SVG Version: 6.00 Build 0)  -->
<svg version="1.0" id="Layer_1" xmlns="http://www.w3.org/2000/svg" xmlns:xlink="http://www.w3.org/1999/xlink" x="0px" y="0px"
	 width="24px" height="24px" viewBox="0 0 24 24" style="enable-background:new 0 0 24 24;" xml:space="preserve">
<style type="text/css">
	.st0{fill-rule:evenodd;clip-rule:evenodd;fill:#F04D2E;}
	.st1{fill-rule:evenodd;clip-rule:evenodd;fill:none;stroke:#F04D2E;stroke-width:3;stroke-miterlimit:10;}
</style>
<path class="st0" d="M12,10c1.1,0,2,0.9,2,2c0,1.1-0.9,2-2,2c-1.1,0-2-0.9-2-2C10,10.9,10.9,10,12,10z"/>
<path class="st1" d="M12,5c2.6,0,5.1,1,7,2c1.3,0.7,2.3,2.1,3,3c0.6,0.8,1,1,1,2c0,1-0.4,1.2-1,2c-0.7,0.9-1.7,2.3-3,3
	c-1.9,1-4.4,2-7,2c-2.7,0-5.1-1-7-2c-1.3-0.7-2.3-2.1-3-3c-0.6-0.8-1-1-1-2c0-1,0.4-1.2,1-2c0.7-0.9,1.7-2.3,3-3C6.9,6,9.3,5,12,5z"
	/>
</svg>
